<svg xmlns="http://www.w3.org/2000/svg" viewBox="0 0 512 512" role="img" aria-label="Gravity Logo Placeholder">
  <defs>
    <radialGradient id="bg" cx="50%" cy="50%" r="50%">
      <stop offset="0%" stop-color="#0b0f18"/>
      <stop offset="100%" stop-color="#111827"/>
    </radialGradient>
    <linearGradient id="g" x1="0" y1="0" x2="1" y2="1">
      <stop offset="0%" stop-color="#7c5cff"/>
      <stop offset="100%" stop-color="#55b9e7"/>
    </linearGradient>
  </defs>
  <circle cx="256" cy="256" r="256" fill="url(#bg)"/>
  <!-- Stylized placeholder helmet/"G" shape -->
  <path fill="#e6f3ff" d="M256 120c-86 0-136 62-136 136 0 74 50 136 136 136 80 0 136-56 136-136v-16h-120c-11 0-16-9-16-20V120z"/>
  <path fill="url(#g)" d="M256 120v116c0 22 14 36 36 36h120c-8 84-72 152-164 152-99 0-168-74-168-168 0-88 63-156 156-156h20z" opacity="0.35"/>
  <circle cx="212" cy="232" r="22" fill="#0b0f18" stroke="#e6f3ff" stroke-width="8"/>
  <path fill="#0b0f18" d="M256 120c40 2 72 14 100 40-28 10-52 14-72 14-20 0-28-8-28-20V120z" opacity="0.4"/>
  <path fill="#fff" d="M330 314c-6 10-24 26-44 34" opacity="0.6"/>
</svg>
